<svg xmlns="http://www.w3.org/2000/svg" width="16" height="16" fill="currentColor" class="bi bi-instagram"><path fill="#000" d="M15.932 4.763c-.018.1-.054.193-.09.287q-.076.206-.294.571c-.482.808-1.071 1.554-1.647 2.296q-.323.416-.388.548c-.045.09-.1.18-.125.277-.019.074-.043.15-.025.227.01.045.012.085.032.126q.083.177.172.273c.322.348.718.696 1.113 1.086.432.425.868.91 1.16 1.437a.912.912 0 0 1 .116.314c.045.374-.255.52-.566.588q-.106.023-.293.027-.695.014-1.392.009-.018 0-.033.008a.048.048 0 0 1-.022.006q-.309.002-.617.008-.17.002-.294-.022a2.023 2.023 0 0 1-.916-.48c-.476-.432-.852-.96-1.327-1.392q-.11-.1-.277-.178c-.412-.192-.676.291-.754.612q-.076.308-.1.626c-.01.147.005.337-.06.495-.09.222-.399.305-.618.306q-.479.003-.957.001c-.026 0-.06-.016-.078-.015-.138.013-.282-.015-.393-.026q-.226-.024-.447-.075a5.806 5.806 0 0 1-2.63-1.402c-.61-.567-1.115-1.219-1.606-1.953C1.853 8.268 1.232 7.13.658 5.964Q.37 5.38.11 4.78c-.082-.19-.097-.428.135-.517a.906.906 0 0 1 .337-.067q.3-.002.6 0c.066 0 .16-.013.24-.013l1.184-.007q.268-.001.379.032c.267.079.384.235.493.501q.475 1.162 1.203 2.31.34.537.673.916.056.064.189.162.132.097.218.114c.427.086.48-.609.522-.873q.01-.062.014-.195c.004-.09.02-.18.021-.263q.004-.497 0-.806c0-.041-.015-.084-.015-.129.001-.366-.029-.998-.348-1.262q-.128-.106-.289-.165-.183-.066-.259-.068-.037 0-.06-.016c-.084-.056.06-.195.091-.234.252-.318.77-.375 1.164-.397.177-.01.303-.024.453-.025q.456-.004 1.026.008c.037.001.071.011.103.012q.333.01.685.105c.386.103.503.403.512.771q.01.428-.008.855c-.016.398-.02.726-.027 1.09-.01.483-.045.812.065 1.204.04.139.137.306.27.359.512.203 1.695-1.933 1.895-2.313.227-.435.417-.897.601-1.347a.546.546 0 0 1 .267-.286q.08-.032.268-.033 1.14-.007 2.28-.008.064 0 .195-.012c.132-.01.252.007.377.017.125.01.297.09.362.205.044.078.025.237.02.326q0 .005-.006.012-.007.008-.01.02z" style="fill:#000;fill-opacity:1;stroke-width:.0256488"/></svg>