<svg xmlns="http://www.w3.org/2000/svg" width="16" height="16" fill="currentColor">
<path d="M10.763.068H9.592c-.646.002-1.229.116-1.747.34-1.224.53-1.632 1.787-1.646 3.036-.007.604-.005 1.204.006 1.8a.026.026 0 0 1-.026.026H4.59c-.022 0-.033.01-.033.032v2.681c0 .022.01.033.033.033h1.557c.032 0 .048.017.048.049v7.846c0 .023.012.034.035.034l3.234-.001c.016 0 .024-.008.024-.024l-.001-7.87c0-.024.012-.037.037-.037l2.129.005c.022 0 .034-.011.036-.033l.278-2.676a.034.035 2.9 0 0-.034-.038L9.529 5.27c-.023 0-.035-.011-.035-.034a20.739 20.739 0 0 1 .022-1.711c.029-.521.431-.696.893-.702a65.262 65.262 0 0 1 1.523-.004.026.025 0 0 0 .026-.026L11.957.095a.021.021 0 0 0-.022-.02c-.39-.004-.781-.006-1.172-.007z"></path></svg>